<svg width="246" height="246" viewBox="0 0 246 246" fill="none" xmlns="http://www.w3.org/2000/svg">
<circle cx="123" cy="123" r="122" transform="matrix(1 0 0 -1 0 246)" stroke="url(#paint0_linear_1364_105)" stroke-width="2"/>
<path d="M42.4906 145.704L43.9685 145.707L44.0276 145.402L45.4926 145.471L45.5208 145.105L46.1068 144.916L46.865 145.323L46.8033 146.096L47.0835 146.331L47.4844 146.239L47.8417 146.447L47.8725 146.209L48.0884 146.833L48.2683 146.71V146.211L48.7309 145.909L48.9699 146.04L48.8055 146.493L49.1216 146.137L50.1111 146.659L51.1417 146.063L51.4321 146.134L51.427 146.751L53.7247 146.703L54.5291 146.262L54.7322 146.503L54.7502 145.835L54.4777 145.269L54.8761 144.227L55.0354 144.219L55.1897 143.508L54.745 143.607L54.984 143.398L54.6088 143.011L55.2822 141.961L56.0378 141.723L55.606 141.472L55.6728 141.273L55.3002 141.162L55.3798 140.778L56.4336 140.054L56.4824 139.706L57.0684 139.565L57.1789 139.204L57.5696 139.247L57.4437 140.353L58.0374 140.609L58.6799 140.325L59.0243 140.697L59.5486 140.118L59.7002 140.187L59.5949 140.522L59.8673 140.62L60.0421 140.423L60.9699 140.52L61.3605 140.069L61.6587 140.064L61.8232 140.274L61.9928 140.172L62.5377 141.17L62.2267 141.539L62.99 142.368L63.2316 142.268L63.6788 141.132L64.0001 141.242L64.0386 141.759L63.8124 142.356L63.9949 142.568L63.7405 143.042L63.9846 143.321L63.7533 143.666L63.9358 143.986L64.198 143.933L64.3959 143.395L64.8868 143.733L64.8456 143.502L65.4188 143.252L65.3751 143.067L65.7786 143.08L65.9328 143.61L66.1667 143.51L66.5445 143.779L66.7501 143.577L66.6165 143.451L66.8966 142.832L67.9144 142.402L68.1611 143.607L68.8705 143.876L69.4333 143.177L69.3048 142.839L68.6546 142.906L68.5235 142.243L69.1583 141.68L68.7728 141.303L68.562 140.625L69.5952 140.64L69.6312 140.804L70.7595 140.571L70.6978 139.55L70.9728 139.427L71.1836 138.81L72.5252 138.167L72.9595 137.489L73.9105 137.281L73.7588 137.138L73.8308 136.874L74.2189 136.416L73.6355 135.873L73.6046 135.556L74.0184 135.448L74.314 134.585H74.0724L74.1675 133.661L73.6535 133.359L73.435 132.962L73.8694 132.578L73.9105 131.923L74.2677 131.92L73.931 131.244L74.1598 130.325L74.3577 130.251L74.0981 129.731L74.5042 129.862L74.882 129.603L74.7226 129.447L74.8589 128.871L75.1878 128.802L75.1056 128.234L75.2855 128.008L75.1519 127.143L75.4269 127.197L75.5657 126.685L75.8355 126.754L75.9666 126.298L76.5269 126.239L76.951 126.362L77.0974 126.659L77.7888 126.769L78.3157 126.416L79.0096 126.656L79.3078 126.147L80.03 126.078L79.9452 126.436L80.305 126.311L80.7419 126.541L81.2713 126.536L81.2739 126.866H81.991L82.2043 126.994L82.0912 127.212L82.5204 127.371L82.8777 127.312L83.3172 126.718L83.33 127.197L83.4842 127.299L84.1242 126.902L84.6254 127.163L87.2392 127.174L87.5707 127.783L87.8226 127.491L88.2441 127.335L88.3932 127.545L88.4754 127.399L88.8815 128.766L89.2439 128.825L88.9637 130.684L88.1721 130.712L88.1413 131.296L87.653 131.413L87.4139 131.723L87.5322 132.097L86.81 132.284L87.0156 132.995L87.7455 133.264L87.9974 133.615L88.0025 134.025L88.424 133.945L88.7633 134.235L88.7992 134.793L89.3698 135.179L90.5495 135.159L90.7731 136.147L91.3077 136.183L91.6161 137.286L91.4902 137.414L90.5572 137.128L90.2514 137.578L90.4133 137.683L90.2514 137.844L90.3542 138.81L89.6191 138.733L89.4392 139.048L89.064 139.119L88.9663 139.455L89.3878 140.54L89.8607 141.047L90.0278 141.546L90.3388 141.739L88.9457 143.129L88.8532 143.538L89.0126 144.071L90.056 144.67L90.0843 145.016L91.3257 143.221L91.5647 144.107L92.1481 143.802L92.729 142.233L93.5617 143.037L93.464 143.124L94.0603 143.223L94.194 143.065L94.6412 143.764L95.1629 143.902L95.0575 143.61L95.5433 143.63L95.5741 143.449L95.844 143.551L96.0547 145.213L96.7512 146.116L97.4477 146.188L98.0517 145.937L98.4115 146.467L98.63 146.436L99.7943 147.153L100.812 145.761L101.244 146.884L101.074 147.701L101.583 147.937L101.799 148.858L101.018 149.099L100.899 149.537L101.167 149.637L101.223 150.835L100.689 150.843L100.714 151.467L100.938 151.78L101.285 151.757L101.354 152.619L101.663 152.647L101.681 153.848L101.488 153.864L101.712 154.056L101.709 154.798L102.961 154.852L103.151 155.988L103.673 155.937L103.757 156.992L104.95 156.972L104.981 157.586L105.86 157.827L105.549 158.866L105.675 159.987L107.71 159.967L107.733 160.474L108.394 161.017L109.525 161.068L109.975 161.69L110.381 161.659L110.756 161.918L110.771 162.345L110.969 162.402L111.054 162.801L110.979 163.203L111.224 163.433L110.602 164.194L111.005 164.793L110.823 164.921L110.411 166.396L110.594 166.746L110.499 167.875L110.967 168.09L111.434 168.011L111.352 168.285L111.604 168.871H112.257L112.277 169.642L112.177 169.962L110.856 170.83L110.419 171.48L110.838 172.284L110.861 173.037L110.591 173.766L110.152 174.296L110.692 175.103L111.306 175.635L110.825 176.79L111.149 177.128L111.172 177.443L110.653 178.098L110.219 178.024L109.975 178.349L109.882 178.956L110.08 179.404L109.861 179.967L110.514 180.763L110.432 180.963L110.27 181.173L110.337 181.849L110.62 181.834L110.183 182.445L109.702 182.171L109.892 181.741L109.779 181.567L109.425 181.81L109.206 181.424L108.733 181.67L108.71 181.915L108.06 181.839L107.476 181.531L107.096 181.89L105.253 181.969L105.269 181.391L105.816 180.415L105.361 180.026L104.582 180.11L104.449 176.787L100.493 176.938L99.6246 177.957L99.0181 177.578L98.3164 177.543L97.7125 177.02L96.6998 177.294L96.5842 177.002L95.9237 176.682L96.029 176.132L95.8671 175.884L95.0807 175.597L94.7362 175.221L93.2918 175.264L92.8703 175.098L92.8035 175.359L92.161 175.576L91.9245 176.053L90.5778 176.001L90.5161 175.582L90.0329 175.459L89.6294 174.844L89.1642 174.908L89.1077 173.674L88.5782 174.045L87.4319 174.122L87.1338 173.869L85.8616 173.769L85.2525 174.071L85.0212 173.902L84.6356 173.981L84.5919 173.572L84.2887 173.626L83.4071 172.599L82.5847 172.458L82.4947 172.143L81.8059 171.928L80.1559 172.473L78.3491 172.171L78.2977 171.603L77.4496 171.385L77.2311 171.457L77.4804 172.243L77.0872 172.166L76.1182 172.412L74.1624 172.233L72.7257 171.713L72.4121 172.251L71.9186 171.997L71.713 172.322H70.4896L70.3277 172.092L69.0761 171.839L67.6291 170.855L67.02 171.096L66.344 170.82L65.3005 171.355L64.473 171.36L63.0363 172.361L62.6096 172.42L61.9877 173.021L61.3554 173.024L61.1112 172.589L59.6925 173.019L59.5614 172.591L59.3276 172.53L58.0579 173.431H57.7701L57.274 173.034L56.4285 173.149L55.6189 172.847L54.4983 173.216L52.7172 173.477L51.0081 173.459L50.0828 174.143L50.1702 174.483L49.2706 175.902L49.6999 177.502L48.8055 178.487L45.9834 180.034L45.1122 181.414L44.0944 182.005L43.6189 182.625L42.2131 182.087L41.4292 182.307L41.3778 181.795L42.01 181.073L40.4011 180.638L39.7355 180.843L39.7149 180.226L39.5196 180.003L38.16 180.52L37.5637 180.405L37.3016 180.781L36.2324 181.298L36.7001 182.248L37.2938 182.586L37.2219 183.016L36.7875 183.498L37.5406 184.895L37.3375 185.095L36.5099 184.942L36.2581 184.207L35.4022 183.994L35.3637 183.664L35.6335 183.326L35.3868 182.937L35.4511 182.655L35.2043 182.548L34.9345 181.956L35.0527 181.414L34.9088 180.996L35.063 180.822L34.8856 180.702L34.9704 180.228L35.2043 180.08L35.0501 179.468L35.2891 179.043L35.0655 178.894L35.2043 178.779L35.0167 178.236L34.8368 178.321L34.698 178.114L34.7494 177.737L35.2943 177.138L35.5307 177.292L35.8083 177.212L36.0113 176.808L36.6359 176.58L36.5948 176.229L36.7541 176.224L36.8235 175.948L36.4842 175.103L36.1321 175.039L36.0962 174.719L36.3326 174.24L36.1835 173.628L36.6487 173.748L36.4817 173.359L36.785 173.137L36.3943 172.806L36.2941 172.394L36.3969 172.217L36.6462 172.294L36.6744 171.979L36.9212 171.897L36.8235 171.416L36.5614 171.411L37.0625 170.948L37.3941 170.976L37.3041 170.553L37.7359 170.105L37.2013 169.307L37.2476 168.641L37.0805 168.16L36.8621 168.065L37.0985 168.011L36.8852 167.845L37.0497 167.379L36.3814 167.01L36.2658 166.728L36.4508 166.575L36.0319 166.245L35.266 166.201L35.0861 166.46L34.937 165.935L34.4384 165.625L34.4024 165.305L33.9295 165.159L34.0298 164.493L34.2868 164.534L34.1891 164.337L33.891 164.266L33.5337 164.488L33.3538 164.166L32.737 164.547L32.5699 164.248L32.2744 164.394L32.1664 163.684L31.7912 163.843L31.6087 163.467L30.5858 163.426L30.3956 163.339L30.4136 163.029L29.7171 163.247L28.5837 162.893L28.3832 162.476L28.5503 161.38L28.0928 161.119L29.2853 158.825L30.519 157.192L30.686 156.567L32.6907 153.787L33.7316 152.742L35.7492 151.564L36.7901 151.155L38.1857 150.909L38.6175 151.147L41.3469 148.904L41.6065 148.889L42.4778 147.862L42.4906 145.704Z" fill="#5D6A81" stroke="#282A2D" stroke-width="0.5"/>
<path d="M128.474 148.838L128.736 149.022L129.276 148.502L129.448 148.781L129.947 148.602L130.728 148.789L130.934 148.515L131.322 148.572L131.826 148.269L132.723 148.607L133.201 148.249L133.877 148.595L134.476 147.926L134.468 147.67L135.465 147.665L135.439 147.138L135.079 147.235L135.015 146.907L134.763 146.897L134.928 146.063L135.822 146.352L136.239 145.848L136.663 145.922L138.171 143.822L138.066 143.049L140.5 142.724L140.585 142.862L141.024 142.634L140.775 141.526L141.895 139.757L142.281 139.544L142.767 139.839L143.484 139.88L143.785 140.338L145.183 140.479L145.653 140.65L145.676 140.858L145.838 140.476L146.175 140.52L146.141 140.924L146.478 140.922L146.686 141.198L147.591 140.791L148.411 139.9L148.604 140.046L149.285 139.987L149.418 140.143L150.048 139.951L150.603 140.021L151.007 140.371L151.048 140.187L151.204 140.277L151.361 140.571L152.415 140.236L152.245 139.875L152.633 139.439L151.6 138.991L151.351 138.787L151.21 138.213L150.955 138.075L151.744 137.084L151.523 136.603L150.958 136.8L150.536 135.95L151.027 135.62L150.77 134.995L150.834 134.762L151.104 134.816L151.112 134.539L151.294 134.524L151.513 135.021L152.05 134.88L152.325 135.087L153.374 134.544L153.052 134.475L152.986 134.132L153.381 133.748L153.168 133.797L153.101 133.49L153.374 133.282L152.837 133.016L153.751 132.688L153.209 131.231L153.399 131.178L153.33 130.835L152.962 130.394L152.944 129.091L153.88 128.152L154.762 127.719L154.97 128.722L155.517 128.492L155.348 128.264L155.594 128.139L155.962 128.41L156.039 128.676L155.772 128.81L155.671 129.191L156.568 129.324L156.864 128.812L156.833 128.472L159.203 129.027L159.449 129.329L159.408 129.585L159.889 129.887L160.436 131.654L160.717 131.889L161.195 131.633L161.339 131.779L161.706 131.562L162.086 131.669L162.613 130.988L162.634 131.311L163.546 131.119L163.878 130.786L164.749 130.922L164.803 130.407L165.384 129.949L166.263 130.22L166.535 129.877L166.484 129.616L166.947 129.695L167.186 129.035L167.872 129.104L168.288 128.466L168.368 127.926L168.684 128.1L168.311 128.786L168.663 128.976L168.501 129.339L170.298 129.688L170.028 130.241L170.519 130.712L171.305 130.62L171.293 130.169L171.943 130.11L172.115 129.88L173.434 130.067L173.775 129.767L173.693 129.414L174.086 129.281L174.86 129.127L174.97 129.36L176.718 129.217L176.813 129.396L176.582 129.898L176.047 130.405L176.346 130.87L176.713 130.609L176.993 130.904L177.222 130.768L177.379 130.968L177.214 131.559L177.71 131.869L177.739 132.611L178.373 132.486L178.53 133.003L178.88 133.1L178.918 133.61L178.504 134.007L178.785 134.519L180.442 134.37L180.766 135.264L180.907 135.079L181.19 135.223L181.296 135.069L181.301 135.292L182.763 135.323L183.025 135.901H183.411L182.894 136.055L182.797 137.606L182.352 137.76L181.563 137.581L181.159 138.001L182.426 138.822L182.663 139.168L183.298 139.391L183.457 140.059L183.722 140.353L183.652 141.201L185.732 143.285L186.77 143.344L186.788 143.899L186.438 144.209L186.659 144.603L187.23 144.962L187.284 145.274L187.708 145.397L187.752 146.424L187.96 146.946L187.469 147.407L187.222 148.052L185.991 148.487L187.176 149.918L187.343 150.323L187.261 151.498L187.556 151.58L188.551 152.532L189.33 152.619L188.631 153.244L188.399 152.878L188.184 152.965L188.158 153.341L187.86 153.505L187.834 154.035L187.166 153.956L187.454 154.616L188.001 154.363L188.397 154.795L188.042 155.574L187.582 155.784L188.081 155.932L188.114 156.278L187.88 156.406L188.001 156.838L187.816 157.074L188.338 157.028L188.52 157.637L188.42 159.734L187.623 159.803V159.977L188.425 160.981L188.52 160.778L188.939 161.355L189.553 161.39L190.055 161.751L189.785 162.038L190.019 162.624L190.008 163.28L189.607 163.922L189.975 164.171L190.458 164.007L191.376 164.176L191.45 165.781L191.707 166.193L190.255 166.954L190.106 166.603L189.312 166.367L188.042 166.38L186.415 166.029L185.696 166.296L185.331 166.17L185.148 165.574L184.218 165.546L183.706 165.812L183.858 166.175L182.699 166.664L182.47 167.225L182.604 167.394L182.182 168.275L181.37 168.59L180.841 168.328L180.566 167.991L180.591 167.683L179.594 167.45L179.247 166.757L178.407 167.125L177.808 167.11L176.297 167.507L175.821 167.338L175.839 167.105L175.603 167.148L175.636 167.596L175.279 167.647L175.559 168.354L175.371 168.339L175.263 168.026L175.102 168.098L175.387 168.515L175.089 168.682L175.317 168.902L175.081 168.869L175.217 169.163L174.911 169.222L175.037 169.417L174.909 169.629L175.238 169.754L175.245 170.062L174.952 170.136L174.672 169.754L174.495 170.021L174.824 170.297L174.356 170.402L174.431 170.837L174.112 170.919L173.937 170.771L173.48 171.068L173.472 171.285L173.755 171.296L173.577 171.513L173.177 171.262L172.93 171.477L173.213 172.315L172.804 173.003L171.75 172.893L171.58 173.462L170.982 173.971L170.771 174.903L169.943 175.267L170.28 176.14L169.964 176.485L170.026 176.741L169.55 176.731L169.206 176.943L169.27 177.169L169.735 177.038L169.879 177.184L169.491 177.919L169.401 178.585L168.265 178.825L168.501 179.683L168.388 180.167L167.998 180.123L167.612 179.752L167.363 179.934L167.707 180.32L167.255 180.876L167.206 181.222L167.715 181.357L167.687 181.562L168.113 181.846L167.933 182.02L167.417 181.892L167.227 182.12L167.581 182.517L168.072 182.66L167.599 182.893L167.592 183.149L167.944 183.807L168.376 183.513L168.597 183.646L168.345 184.737L168.617 184.995L168.751 185.743L169.355 186.086L169.332 186.28L168.573 186.562L168.661 187.233L168.825 187.409L169.283 187.289L169.308 187.612L169.961 188.667L169.632 189.271L169.889 189.924L169.373 190.139L168.81 190.689L169.162 190.891L168.992 191.099L169.373 190.958L169.09 191.659L168.81 191.644L167.815 192.246L167.168 191.68L166.134 191.897L166.319 190.907L165.199 190.825L163.724 189.314L164.302 188.787L163.999 187.525L164.196 187.402L163.873 187.328L163.032 186.214L162.217 185.543L161.377 185.259L160.83 184.747L160.611 185.425L159.946 184.875L159.82 184.936L159.948 185.377L159.789 185.464L157.841 184.967L157.751 185.407L157.355 185.658L157.095 185.574L156.89 185.973L156.167 185.413L155.556 185.571L155.335 185.784L155.461 185.953L155.227 186.752L154.553 186.398L154.037 186.618L153.831 186.319L153.615 186.388L153.613 186.856L152.695 186.375L152.361 185.428L152.711 185.274L152.677 184.644L152.538 184.199L152.143 184.204L152.009 184.458L151.328 184.77L151.266 185.016L151.022 184.934L150.75 185.131L150.562 184.962L150.354 185.308L150.092 185.361L150.079 185.858L149.619 186.227L148.794 185.697L148.372 186.703L148.424 187.404L148.074 188.16L146.365 187.755L145.82 188.034L145.278 188.638L144.681 188.777L144.712 188.021L144.332 186.465L143.646 186.245V185.84L143.25 185.21L143.497 184.186L143.36 183.073L142.566 182.881L142.461 182.153L141.908 181.703L142.042 181.38L141.654 181.214L141.895 180.633L141.71 180.453L140.6 180.505L139.107 182.407L138.541 182.845L138.097 182.883L137.963 182.374L136.825 182.409L135.794 183.147L135.234 183.259L134.057 185.471L134.337 185.843L134.44 186.529L134.288 186.593L134.224 187.279L133.887 187.632L133.594 187.018L133.599 186.091L132.926 186.808L132.576 186.659L131.8 183.462L132.021 183.234L131.659 183.377L131.597 183.244L132.116 182.996L130.183 182.942L130.181 182.632L129.6 182.555L129.459 182.32L128.557 182.248L127.089 183.523L126.346 183.882L126.179 182.827L124.994 181.339L124.521 181.406L124.714 179.742L124.529 179.552L122.915 180.643L122.838 181.306L122.545 181.8L122.057 181.88L121.607 182.668L121.27 182.814L120.949 182.683L120.34 183.088L118.502 183.321L119.173 182.22L118.795 182.238L118.559 182.642L118.15 182.745L118.176 181.915L117.962 181.544L116.906 181.129L116.387 181.388L116.222 181.562L116.582 181.828L116.338 182.919L116.762 183.81L116.485 184.038L115.827 184.135L114.994 185.876L114.644 185.786L113.241 184.598L113.485 184.493L113.532 183.899L114.305 183.157L114.477 182.427L114.375 181.964L113.783 181.944L113.575 181.723L112.912 181.598L112.444 181.928L111.098 180.981L110.859 181.398L110.468 180.986L110.553 180.786L109.9 179.99L110.118 179.427L109.92 178.976L110.01 178.369L110.255 178.044L110.689 178.121L111.208 177.463L111.188 177.148L110.864 176.81L111.344 175.656L110.73 175.126L110.19 174.317L110.63 173.789L110.902 173.06L110.877 172.307L110.46 171.503L110.897 170.85L112.218 169.985L112.318 169.662L112.298 168.894H111.645L111.393 168.308L111.478 168.031L111.01 168.111L110.542 167.896L110.638 166.767L110.455 166.416L110.866 164.941L111.049 164.813L110.648 164.214L111.27 163.454L111.026 163.223L111.103 162.824L111.018 162.425L110.82 162.368L110.805 161.941L110.432 161.682L110.023 161.713L109.576 161.091L108.445 161.04L107.782 160.497L107.759 159.99L105.726 160.013L105.6 158.889L105.911 157.852L105.919 157.668L106.477 157.394L106.698 156.987L107.528 156.308L107.7 155.983L107.224 154.813L107.638 154.765L107.646 154.514L107.846 154.501L108.24 153.526L109.419 153.758L109.484 153.469L110.537 153.636L110.925 153.482L110.977 153.111L111.465 153.569L111.933 153.083L112.036 153.351L112.37 153.185L112.344 153.654L112.719 153.669L112.401 155.097L112.912 155.113L114.403 156.032L114.5 156.621L116.03 156.467L117.759 156.938L118.294 156.626H118.821L118.841 155.781L119.278 155.53L119.057 154.347L119.525 154.094L121.964 153.779L122.193 154.923L123.38 154.701L123.493 155.279L126.184 154.852L127.914 153.136L127.942 149.951L128.474 148.838ZM186.708 155.246L186.662 154.918L187.348 154.952L187.549 155.133L187.415 155.597L187.189 155.218L186.708 155.246Z" fill="#5D6A81" stroke="#282A2D" stroke-width="0.5"/>
<path d="M85.5043 74.7974L85.9464 74.8818L86.3036 75.1968L86.6403 76.0519L86.5504 76.3796L87.0259 76.6586L86.959 76.9018L88.5808 78.3893L88.2518 78.5916L88.239 79.1292L87.9614 79.3545L88.2133 80.3043L88.0899 80.6115L88.4574 80.3837L88.7633 80.5142L89.0948 80.2634L89.7271 80.1891L90.1229 80.5373L91.2229 82.3755L92.0736 82.7288L92.1995 83.2383L91.9682 84.1574L92.4822 85.1226L92.5928 85.9213L92.9294 86.1108L93.0605 86.4436L93.4126 86.1185L93.7519 86.1927L93.8444 86.4052L94.5486 86.2337L94.2788 86.7099L94.2968 87.7954L94.9264 88.0361L94.8468 88.3638L94.2428 88.351L94.2608 89.4109L93.3175 89.0268L93.5874 89.3289L93.3844 89.5568L93.3612 90.0125L93.6696 90.1456L93.5643 90.4964L93.901 90.4452L93.8418 91.0827L94.0937 91.4053L93.6851 92.3116L93.7879 92.4831L93.4615 92.6393L93.9549 92.9158L93.04 94.0986L92.3717 94.0704L92.125 94.6464L91.8243 94.6695L91.9528 95.2558L91.6521 95.2532L90.9607 96.8354L91.0327 97.437L90.6086 97.501L90.4107 97.7366L90.182 97.5907L90.0843 97.8339L89.8067 97.8544L89.4572 98.6941L89.2876 98.6608L88.8661 99.3444L88.974 99.6414L88.6116 99.7002L88.7119 99.8871L88.2955 100.42L87.91 100.299L87.5861 100.476L86.8074 100.089L86.6095 100.248L86.5375 99.8999L86.1494 99.5518L85.8153 99.8564L85.4863 99.6004L84.6022 100.415L83.9134 100.783L83.6102 101.272L83.0344 101.311L82.762 101.047L82.8674 100.722L82.6978 100.635L82.487 100.845L82.3919 101.446L81.6928 102.373L81.7931 102.726L83.4174 103.625L83.5331 103.3L83.0165 102.831L83.2786 102.583L83.6256 102.721L84.0856 102.422L84.466 102.429L84.4711 102.739L84.1088 102.913L83.9957 103.768L84.3118 104.086L84.1627 104.262L84.4583 104.844L84.3735 105.292L84.7564 105.712L84.8233 106.216L85.4658 106.454L86.1443 105.965L86.3371 106.049L86.7483 105.648L87.7121 105.371L87.8534 106.876L87.4448 107.975L88.2955 107.78L89.1848 107.074L89.9018 108.725L89.3518 109.424L88.8301 109.616L88.3855 109.539L88.8892 110.45L87.8226 110.829L87.2469 111.431L86.9822 111.106L86.7354 111.48L86.0235 111.528L86.517 112.67L85.9593 112.739L86.1263 113.134L85.9233 113.203L86.2394 113.515L86.6146 113.287L86.9282 113.661L86.5401 113.981L86.8742 114.472L86.6326 114.713L87.4859 116.155L87.5502 116.592L88.6784 116.917L88.4728 117.801L88.9432 117.798L89.2773 118.095L89.2439 118.477L90.0252 119.16L90.2385 119.88L90.9684 120.538L90.8399 120.694L91.9811 121.254L91.9554 122.115L91.061 122.783L91.3925 123.036L91.5544 122.691L91.7523 122.688L91.8808 123.064L92.161 122.98L92.2355 125.151L92.6879 126.206L91.6135 126.418L91.4285 126.669L90.4081 126.536L89.7656 126.902L89.5446 126.723L89.028 127.337L88.6862 127.24L88.4831 127.404L88.4009 127.55L88.2518 127.343L87.8303 127.499L87.5784 127.793L87.2469 127.184L84.6331 127.174L84.1319 126.912L83.4919 127.312L83.3377 127.207L83.3274 126.731L82.8879 127.325L82.5307 127.381L82.1015 127.222L82.2146 127.005L82.0013 126.879H81.2842L81.2816 126.546L80.7522 126.551L80.3152 126.321L79.9554 126.446L80.0402 126.085L79.318 126.155L79.0199 126.664L78.3285 126.423L77.8017 126.777L77.1103 126.667L76.9638 126.37L76.5397 126.247L75.9794 126.306L75.8484 126.761L75.5785 126.692L75.4397 127.204L75.1647 127.151L75.2984 128.016L75.121 128.241L75.2007 128.81L74.8717 128.879L74.7355 129.457L74.8948 129.611L74.517 129.869L74.111 129.739L74.3705 130.259L74.1726 130.33L73.9439 131.252L74.2806 131.925L73.9208 131.928L73.8822 132.583L73.4479 132.967L73.6663 133.364L74.1803 133.666L74.0853 134.59H74.3268L74.0338 135.456L73.6201 135.563L73.6483 135.881L74.2318 136.423L73.8437 136.882L73.7691 137.145L73.9233 137.289L72.9724 137.496L72.5355 138.175L71.1964 138.817L70.9857 139.434L70.7107 139.557L70.7724 140.581L69.6441 140.812L69.6107 140.648L68.5775 140.632L68.7882 141.311L69.1737 141.687L68.5389 142.25L68.67 142.914L69.3202 142.847L69.4487 143.185L68.8859 143.884L68.1765 143.615L67.9298 142.409L66.912 142.839L66.6319 143.459L66.7655 143.584L66.5599 143.787L66.1821 143.518L65.9482 143.618L65.794 143.088L65.3931 143.075L65.4368 143.259L64.8636 143.51L64.9047 143.74L64.4139 143.403L64.216 143.94L63.9512 143.994L63.7687 143.676L64.0001 143.331L63.7585 143.052L64.0103 142.578L63.8279 142.366L64.0566 141.769L64.0181 141.252L63.6968 141.142L63.2496 142.276L63.008 142.376L62.2447 141.549L62.5556 141.18L62.0108 140.182L61.8412 140.284L61.6792 140.074L61.3811 140.077L60.9904 140.527L60.0601 140.43L59.8879 140.627L59.6154 140.53L59.7208 140.195L59.5666 140.126L59.0423 140.704L58.6979 140.333L58.0554 140.617L57.4642 140.361L57.5902 139.255L57.1995 139.212L57.0864 139.573L56.503 139.713L56.4542 140.062L55.4004 140.789L55.3207 141.173L55.6934 141.283L55.6266 141.482L56.0584 141.733L55.3027 141.971L54.6294 143.021L55.0046 143.408L54.7656 143.618L55.2102 143.518L55.056 144.229L54.8992 144.235L54.4983 145.277L54.7707 145.845L54.7527 146.511L54.5497 146.27L53.7452 146.71L51.4475 146.759L51.4527 146.142L51.1648 146.07L50.1342 146.664L49.1447 146.144L48.8286 146.5L48.9931 146.047L48.7541 145.917L48.294 146.219L48.2914 146.718L48.1115 146.841L47.8982 146.219L47.8674 146.457L47.5075 146.252L47.1066 146.342L46.829 146.109L46.8907 145.335L46.1325 144.926L45.5465 145.115L45.5183 145.481L44.0533 145.412L43.9942 145.717L42.5163 145.714V144.754L42.2465 144.212L42.0871 140.855L42.6526 140.2L42.3621 139.654L42.2542 138.144L41.735 137.371L41.7916 137.074L41.4934 136.984L41.2467 136.385L42.1077 133.989L41.8301 133.426L41.1028 132.811L40.9383 131.656L40.2289 131.247L37.2296 122.511L35.8186 116.697L35.7518 115.445L35.1195 114.603L35.1838 112.004L34.6466 111.633L34.4102 110.066L34.4795 108.628H34.7237L34.8728 109.004L35.7235 109.037L36.2684 109.57L37.0008 109.291L38.0572 109.314L38.2011 109.147L39.2728 109.654L39.5633 110.054L39.4348 110.397L39.72 110.435L40.2444 110.089L39.8845 109.516L39.9282 109.278L40.7815 108.64L41.4395 109.06L41.7376 108.989L42.1051 108.208L43.0175 108.74L43.1409 109.516L43.5161 109.562L45.6082 109.152L45.8601 108.579L46.3947 108.679L46.6645 108.387L47.5255 108.167L47.7671 108.556L47.7003 108.814L48.1089 108.976L48.4945 108.722L48.623 109.096L49.6536 110.235L49.9749 110.32L50.2704 109.972L50.4735 110.33L51.666 110.148L51.6018 110.299L51.7842 110.402L51.7508 110.123L51.9153 110.13L51.9256 110.33L52.3445 110.123L52.6889 109.449L53.5499 108.489L54.5163 107.655L55.0997 107.442L55.4904 106.871L56.0121 107.007L56.5544 106.572L57.0016 106.687L56.7677 108.384L57.6981 108.274L57.6467 108.029L58.2995 107.419L58.7724 107.25L59.1682 107.365L59.379 107.237L59.397 106.92L59.6591 106.971L59.582 106.308L60.1629 106.321L60.2554 106.085L60.1063 105.962L59.6977 106.111L59.3096 105.745L59.2659 104.913L58.3561 103.597L58.4049 103.42L58.7647 103.505L59.4741 102.954L59.2376 102.504L60.2323 102.468L61.9105 101.666L62.3141 101.892L62.2395 102.081L62.5839 102.601L63.0157 102.821L63.6531 102.711L64.1054 102.87L64.933 101.756L66.5548 100.105L66.5291 99.562L66.9069 98.8477L67.1253 98.7146L67.4749 99.0832L67.7884 98.3946L68.4541 98.7683L68.5441 98.5738L68.8088 98.7683L69.0658 98.5968L69.405 98.6915L69.5875 98.4355L70.4665 98.1001L70.7184 97.5907L71.3326 97.6137L71.2915 97.8339L71.5742 97.8364L71.8518 97.6803L71.821 97.4678L72.1217 97.4575L72.1808 97.1785L72.4918 97.3116L72.5406 98.0515L73.381 98.3843L73.2525 98.6147L73.5609 98.9578L73.4993 99.242L73.8873 99.8718L73.0135 99.795L73.0469 100.12L73.3656 100.307L73.3579 100.863L72.4686 101.231L72.3864 101.567L72.8413 102.181L73.2063 102.452L73.4504 102.33L74.1495 102.657L74.6044 102.578L74.5453 102.744L74.8717 103.067L75.3035 102.688H75.6993L75.7276 102.161L76.0591 102.158L76.0925 101.784L76.7402 102.199L77.0358 102.038L77.0486 101.69L77.2414 101.999L77.7682 102.14L77.8813 101.969L77.4855 101.81L77.3442 101.311L77.5164 100.988L77.3981 100.681L77.0023 100.12L76.8636 100.156L77.7811 99.521L77.6063 99.6439L77.2337 99.4033L76.9432 98.4842L76.3984 98.3126L76.221 98.4432L76.0283 98.2435L76.1722 97.606L75.7404 96.8943L75.2829 96.8431L74.9026 97.1861L74.6533 96.9865L74.4553 97.222L73.9156 97.0479L73.8771 96.8252L73.1883 97.0786L73.1394 96.5256L72.8567 96.477L72.8876 96.1826L73.25 96.1416L73.399 95.4478L73.9259 95.0894L73.8128 94.5466L73.9465 94.2266L74.1932 94.393L74.6635 93.5865L74.4656 92.7391L74.6224 92.4754L74.1983 92.3858L74.8229 92.0427L75.6556 89.9229L76.9741 88.9884L77.1668 88.5763L77.0255 87.1784L76.7505 86.7457L76.861 86.5102L76.6194 85.1738L76.7916 85.0534L76.6811 84.4851L76.933 82.9669L76.6811 81.2337L76.9818 80.5091L77.4521 80.4426L77.5652 79.4134L77.9636 79.2111L78.2026 78.694L78.8965 78.0846L79.0225 77.0836L79.3823 77.0631L79.5416 76.8301L79.9194 76.9812L80.3512 76.8199L80.6828 76.4359L81.3639 76.1235L81.662 76.4333L82.9034 76.6509L82.726 76.441L83.2375 76.2592L83.1835 75.783L83.7669 75.7088L83.9828 75.1712L84.2938 75.2838L84.7333 75.0022L85.1779 75.102L85.5043 74.7974ZM71.8595 98.2717L71.5897 98.2051L71.7541 97.967L72.1268 97.9516L71.8595 98.2717Z" fill="#5D6A81" stroke="#282A2D" stroke-width="0.5"/>
<path d="M146.079 99.3035L146.617 99.1729L146.93 99.4571L147.179 99.0602L147.406 99.1396L147.472 98.8452L147.76 98.9911L148.159 98.3895L148.105 97.9466L148.477 97.8518L148.585 97.2604L149.413 97.327L149.194 96.6178L149.428 96.1775L150.359 95.8293L150.351 96.2031L151.161 96.5026L151.695 97.0735L152.094 96.8354L153.183 96.9583L154.029 96.7535L154.517 96.308L155.067 96.6741L155.404 96.2108L155.319 96.0571L155.55 95.9496L155.764 96.1237L155.44 96.5794L155.949 97.0966L155.738 97.3833L156.594 97.8109L156.638 97.624L157.036 97.6624L157.463 97.304L157.164 98.2333L157.861 98.2307L158.09 98.1104L157.645 97.3884L157.681 97.0019L158.555 97.2784L158.552 96.9814L159.051 96.815L158.511 96.5641L158.275 96.1007L158.899 96.1391L159.262 96.6306L159.737 95.8421L159.262 95.3275L159.398 94.9051L160.138 94.7668L160.187 94.987L159.953 95.2481L159.714 95.2405L159.742 95.4862L160.516 95.2225L160.991 95.8805L160.966 96.4284L161.392 96.4002L161.665 95.7909L161.462 95.5016L161.683 95.3377L162.307 95.8191L162.482 95.6629L162.806 95.9957L163.047 95.8805L163.304 94.5569L163.808 94.8206L163.513 95.4657L163.657 95.901L162.929 96.5333L162.59 97.5728L163.978 97.9338L164.572 96.9891L165.381 97.0607L165.263 96.5794L165.44 96.2364L165.618 96.518L165.862 96.5205L166.008 97.4576L166.371 97.752L166.517 98.4432L167.021 98.0771L167.113 98.6609L167.471 98.6404L167.301 98.8708L167.794 98.9834L167.548 98.6609L167.581 98.2896L168.298 98.2794L167.602 98.0362L168.434 97.3654L168.116 97.2041L168.496 96.3669L168.756 96.1954L168.936 96.2952L169.105 95.9445L168.83 95.5246L168.455 95.4913L168.306 95.2635L168.671 95.0331L169.072 95.0945L169.735 94.6823L169.92 94.8078L170.642 94.5543L170.365 93.8119L170.519 93.5354L171.035 93.369L171.609 93.5866L171.688 93.7811L172.367 93.776L172.488 94.3597L173.21 94.137L174.012 94.3981L174.5 94.1549L174.456 93.5994L174.739 93.4611L174.713 93.0208L175.184 92.6495L175.554 93.3894L176.039 93.3203L176.24 93.584L176.739 93.4995L177.07 94.3367L177.733 93.6301L177.864 93.2153L178.453 93.1206L178.589 92.862L179.316 92.5343L179.018 91.9711L179.483 91.8994L179.764 92.1964L180.398 92.0197L180.959 92.158L181.033 93.1437L181.249 93.2589L181.329 93.8247L181.668 94.2343L181.334 94.9768L182.251 95.3787L182.655 96.2594L181.976 96.8969L182.629 97.1222L182.431 98.1437L182.537 99.2702L182.925 99.2087L183.39 99.516L183.727 99.1396L183.866 99.964L184.367 99.9025L184.305 100.207L183.93 100.1L183.781 100.386L184.829 100.491L185.611 101.38L185.976 101.334L186.086 101.526L185.891 101.992L186.572 102.299L187.045 102.294L187.23 102.757L188.428 102.88L188.957 102.598L188.898 102.819L189.35 103.338L189.366 103.814L190.286 103.494L190.458 103.817L190.705 103.589L191.247 103.512L191.106 104.347L190.856 104.644L191.491 104.685L192.167 104.135L192.46 104.508L192.779 104.278L192.969 104.598L193.216 104.37L193.573 104.498L193.282 104.931L193.529 105.456L193.439 105.993L192.792 106.958L192.997 107.322L193.421 107.445L193.45 108.249L192.748 108.733L192.802 109.309L192.627 109.37L192.293 110.374L192.337 110.886L191.735 111.106L191.967 111.308L192.098 111.221L192.113 111.457L191.946 111.731L191.571 111.774L191.396 112.176L191.64 112.271L191.578 112.455L190.954 112.519L191.239 112.878L191.046 113.715L191.198 113.825L191.342 113.413L191.527 113.561L191.591 113.361L191.851 113.341L191.938 113.553L192.167 113.5L193.609 114.352L193.75 114.007L194.156 113.902L194.596 114.076L195.313 113.446L196.418 113.617L196.346 113.387L197.089 113.474L197.387 113.121L197.916 112.988L198.328 113.541L198.788 113.587L198.873 113.809L199.04 113.612H199.471L199.823 114.626L200.366 114.667L200.484 114.439L200.926 114.337L200.985 114.529L200.695 114.844L201.651 114.805L202.062 115.205L202.247 116.062L202.502 116.219L203 115.819L203.607 115.858L204.226 115.55L204.278 116.08L204.817 116.311L204.961 116.574L205.002 117.217L204.131 117.791L203.632 117.719L203.36 117.919L203.347 118.244L203.44 118.833L203.668 118.958L203.656 118.323L204.015 118.766L203.617 119.767L204.226 120.755L204.624 120.981L204.499 121.551L205.213 121.674L205.976 122.227L205.773 122.573L206.945 122.719L206.989 123.817L207.418 123.907L207.781 122.983L207.919 123.285L208.552 123.651L208.048 123.786L207.981 124.104L209.515 124.406L209.731 124.209L210.109 124.273L209.731 124.808L210.009 125.563L209.587 125.612L209.572 125.993L209.762 126.308L210.081 126.247L210.24 126.603L209.922 126.4L209.554 126.454L209.618 126.751L209.276 127.122L209.775 128.321L208.847 128.492L208.521 128.182L208.143 128.431L207.868 129.007L207.205 128.2L207.256 128.973L206.878 128.991L206.593 129.726L205.863 129.38L205.488 129.647L205.439 129.214L204.756 129.337L204.792 129.521L205.267 129.672L205.241 129.954L204.002 132.32L203.709 132.407L203.321 133.016L202.815 132.908L202.286 133.065L201.934 133.449L202.011 133.868L201.795 134.314L201.232 134.841L200.111 134.862L199.903 135.274L199.991 135.763L199.027 135.492L198.759 136.109L197.305 136.47L195.855 136.052L195.822 135.766L195.393 135.983L195.313 136.226L194.246 136.288L193.861 136.127L194 135.599L193.781 135.471L193.3 135.277L193.013 135.515L192.29 135.402L191.671 134.462L191.496 133.331L191.157 133.216L190.682 132.673L190.401 132.809L188.463 131.687L187.541 132.829L186.839 132.901L186.716 132.637L186.199 132.624L186.071 132.46L184.179 132.22L184.439 133.354L184.066 133.556L184.033 134.027L183.423 134.462L183.459 134.916L183.701 134.923L184.084 135.433L183.917 135.832L183.39 135.883H183.005L182.742 135.305L181.283 135.274L181.277 135.049L181.169 135.205L180.887 135.059L180.745 135.243L180.419 134.352L178.764 134.501L178.484 133.986L178.897 133.592L178.859 133.08L178.509 132.983L178.353 132.468L177.718 132.593L177.69 131.851L177.193 131.541L177.358 130.95L177.204 130.75L176.975 130.886L176.695 130.594L176.327 130.855L176.029 130.387L176.561 129.88L176.793 129.378L176.7 129.199L174.95 129.34L174.842 129.107L174.068 129.263L173.675 129.393L173.757 129.747L173.415 130.046L172.097 129.862L171.927 130.092L171.274 130.151L171.287 130.602L170.503 130.694L170.01 130.223L170.28 129.672L168.483 129.324L168.648 128.961L168.293 128.771L168.666 128.088L168.35 127.913L168.27 128.454L167.851 129.091L167.165 129.022L166.926 129.68L166.463 129.603L166.515 129.864L166.24 130.207L165.363 129.936L164.782 130.394L164.728 130.909L163.857 130.773L163.526 131.106L162.613 131.298L162.59 130.978L162.066 131.659L161.685 131.551L161.32 131.769L161.176 131.623L160.698 131.879L160.416 131.641L159.871 129.877L159.39 129.575L159.431 129.319L159.185 129.014L156.815 128.459L156.846 128.802L156.55 129.311L155.656 129.181L155.756 128.797L156.023 128.666L155.946 128.4L155.579 128.129L155.332 128.254L155.504 128.482L154.954 128.712L154.746 127.709L153.864 128.141L152.929 129.081L152.944 130.384L153.314 130.827L153.381 131.17L153.191 131.224L153.733 132.681L152.821 133.008L153.358 133.277L153.083 133.484L153.15 133.792L153.363 133.746L152.965 134.13L153.032 134.473L153.353 134.539L152.307 135.085L152.029 134.877L151.495 135.018L151.276 134.521L151.094 134.537L151.086 134.813L150.816 134.762L150.752 134.992L151.006 135.617L150.518 135.947L150.94 136.8L151.505 136.6L151.726 137.081L150.937 138.072L151.191 138.211L151.333 138.784L151.582 138.989L152.618 139.437L152.23 139.872L152.399 140.231L151.348 140.566L151.189 140.271L151.035 140.182L150.994 140.366L150.59 140.015L150.035 139.946L149.405 140.138L149.274 139.98L148.593 140.041L148.4 139.893L147.58 140.786L146.676 141.191L146.468 140.917L146.133 140.919L146.164 140.515L145.828 140.471L145.666 140.855L145.643 140.648L145.172 140.476L143.774 140.335L143.473 139.877L142.756 139.836L142.271 139.542L141.885 139.754L140.764 141.523L141.011 142.632L140.574 142.86L140.489 142.724L138.058 143.049L138.163 143.822L136.655 145.922L136.233 145.848L135.817 146.352L134.923 146.063L134.758 146.897L135.012 146.907L135.077 147.235L135.437 147.138L135.462 147.663L134.462 147.67L134.47 147.926L133.874 148.595L133.198 148.249L132.72 148.607L131.823 148.267L131.317 148.569L130.929 148.513L130.726 148.787L129.944 148.6L129.446 148.782L129.276 148.5L128.736 149.02L128.474 148.838L128.574 148.753L128.168 148.218L127.461 147.729L126.528 147.473L126.549 146.938L126.636 146.462L127.603 145.807L128.101 144.608L127.695 143.707L127.467 143.615L127.497 143.254L128.389 143.019L128.317 142.788L128.664 142.343L128.441 141.557L128.271 141.513L127.752 140.407L128.017 139.752L128.191 139.601L128.456 139.788L128.903 139.288L129.453 139.685L129.895 139.724L130.283 138.963L129.71 138.308L129.674 137.501L129.482 137.314L129.751 136.759L129.451 135.776L129.751 135.453L129.464 135.315L129.243 134.724L128.947 134.864L129.271 134.327L128.893 133.802L127.361 134.219L127.025 134.15L127.009 133.945L127.24 133.912L126.68 133.651L126.798 134.117L126.169 134.311L126.043 133.945L126.169 133.733L125.5 133.917L125.945 133.656L126.187 132.993L126.112 132.747L125.439 132.486L124.961 133.257L124.583 132.76L124.228 132.796L124.138 133.162L123.894 133.116L123.768 132.76L123.105 133.042L122.982 132.419L122.653 132.496L121.645 131.907L121.751 131.429L121.316 131.129L121.134 130.274L121.686 130.466L122.257 130.1L122.409 130.353L123.311 130.666L125.153 130.83L125.791 130.791L125.788 130.297L127.431 130.246L127.778 130.079L127.76 128.792L127.166 128.085L126.318 127.755L126.253 127.404L126.436 126.679L126.819 126.754L126.837 126.49L127.253 126.254L127.261 124.588L126.649 124.027L125.953 123.804L126.223 123.807L126.323 123.487L126.654 123.42L127.23 123.761L127.474 123.303L127.788 123.359L128.5 122.45L128.649 122.67L128.878 122.491V122.002L129.078 122.081L129.371 122.732L129.569 122.396L130.358 122.33L130.394 121.984L130.068 122.069L129.849 121.749L129.996 122.209L128.914 121.935L129.615 121.29L130.659 121.341L130.728 120.637L131.394 120.666L131.201 120.361L131.383 119.57L133.09 120.617L134.362 120.668L134.288 120.115L135.069 119.836L135.375 120.596L136.136 120.673L136.814 121.564L136.842 122.04L137.747 122.191L137.76 122.45L137.945 122.506L137.631 121.07L138.025 120.981L137.598 120.827L137.575 120.586L138.477 120.154L138.582 120.415L139.983 120.556L140.212 120.148L139.883 119.877L139.932 119.222L139.711 119.05L139.862 118.692L140.292 118.907L140.515 118.564L140.374 117.829L140.489 117.197L140.947 117.243L140.983 117.66L141.443 117.491L141.903 118.264L142.286 118.169L142.476 117.775L143.209 117.614L143.394 117.176L144.255 116.928L144.519 116.487L144.471 115.771L144.645 115.315L145.041 115.312L145.524 116.05L145.984 115.927L145.907 115.018L146.162 115.064L146.532 114.777L145.763 114.531L145.925 113.986L147.519 114.106L147.822 113.935L147.899 113.443L147.347 113.336L147.195 113.026L146.604 113.141L146.424 112.499L145.514 112.739L145.28 112.575L145.822 112.342L146.514 111.462L145.848 111.848L145.493 111.59L145.509 111.416L145.938 111.359L146.118 111.073L145.596 110.86L146.092 109.828L145.617 109.542L145.663 108.663L145.162 108.259L145.519 107.849L145.414 107.368L144.792 106.756L145.051 106.313L146.046 105.77L146.722 105.781L146.501 105.463L146.93 101.764L146.66 101.48L147.123 101.08L147.226 100.622L147.046 100.537L147.329 100.368L146.994 100.261L147.061 100.046L146.822 100.074L146.804 99.7489H146.193L146.079 99.3035Z" fill="#5D6A81" stroke="#282A2D" stroke-width="0.5"/>
<path d="M122.352 35.5908L122.494 35.6036L122.558 36.5381L123.321 36.7173L124.193 37.5673L124.205 38.4531L124.604 38.5452L124.874 38.2739L125.041 38.8883L125.547 39.3415L126.084 39.2032L126.76 39.3184L126.94 38.6221L126.67 38.0819L126.732 37.7106L126.919 37.6415L127.639 38.0537L127.562 38.3788L128.438 37.7772L129.603 37.7951L129.649 37.5903L130.001 37.4828L131.291 38.0204L131.726 37.8233L132.461 37.9154L132.474 38.1894L132.142 38.5965L131.828 38.5017L131.687 38.8883L132.07 39.4055L132.091 39.833L132.874 40.4961L132.962 41.4562L133.599 42.4572L133.712 42.3215L134.041 42.4572L134.851 42.3087L135.627 42.8976L135.889 41.8069L136.935 41.6149L137.154 41.4127L137.508 41.5995L137.506 41.0312L138.67 40.9774L138.832 40.5063L140.222 40.2452L140.69 40.8545L141.114 40.45L141.549 40.5038L142.715 41.8095L143.44 41.5176L144.001 41.7583L144.363 41.6559L145.337 42.3522L145.962 42.2473L146.586 42.4444L147.131 42.8822L146.691 43.0947L146.625 43.3661L147.272 43.5478L147.65 44.1418L147.062 44.4669L146.717 44.4516L146.679 44.659L146.054 44.7434L146.64 45.6856L146.249 45.6882L145.972 46.1899L146.018 47.3446L145.491 48.064L145.617 48.8218L145.376 49.2852L145.468 49.5771L146.18 49.7051L147.172 50.4142L147.293 50.8674L147.758 51.2361L148.398 51.3462L149.565 50.3067L149.724 49.4798L150.341 48.7962L150.647 48.9268L151.392 48.3968L152.104 48.4224L152.801 48.0333L153.114 48.4506L153.076 48.7527L153.335 48.8781L153.793 48.7578L154.525 47.9462L154.497 47.511L154.692 47.598L155.209 46.7532L155.021 46.4255L155.54 46.0287L156.55 46.3768L157.011 46.1797L157.016 45.7854L157.481 45.7522L158.452 46.1669L158.792 46.6329L159.015 46.5228L159.552 47.0527L160.066 47.0425L160.262 46.4306L160.732 46.4178L160.755 45.8878L160.583 45.619L160.712 45.4629L160.963 46.0184L161.483 45.8571L161.863 45.9621L162.141 45.7522L162.783 46.0005L162.845 45.8162L163.02 47.0604L163.983 46.9452L164.52 47.744L165.145 47.5571L165.356 47.8336L166.785 47.6646L166.872 47.9846L167.378 48.3456L166.957 48.7194L167.594 49.7819L168.604 49.8152L169.519 50.5474L169.91 51.4818L169.692 51.8966L169.743 52.3369L170.311 52.3856L170.033 52.8618L170.36 52.8848L170.303 53.5863L170.601 53.617L170.792 52.9079L171.434 52.8003L171.961 54.6411L171.85 54.8459L172.102 55.1352L172.94 55.1301L172.93 54.8101L173.295 54.7768L173.403 54.275L173.75 54.1342L173.483 53.8142L174.017 53.7527L174.863 54.3672L175.233 54.0318L175.302 55.2274L175.685 56.7174L174.929 57.0451L174.883 57.2704L175.217 57.488L175.184 57.7338L175.492 57.7082L175.772 58.1946L175.017 58.8449L174.575 58.9115L174.85 59.4696L174.711 60.0303L175.294 61.5152L175.037 62.2525L174.621 62.3421L174.074 63.1639L173.56 63.4353L173.233 63.8962L173.082 64.2085L173.133 65.4604L174.318 65.7574L174.323 66.208L174.752 66.3872L175.061 67.9976L175.772 68.3074L175.978 69.037L176.287 69.0933L176.047 69.8767L176.5 69.9663L176.343 70.673L176.495 70.9725L176.227 71.6612L176.513 72.4344L176.531 73.6735L176.328 73.845L176.202 73.6504L175.366 73.4277L174.811 74.0037L175.503 74.5721L175.886 75.3171L175.366 75.4784L175.402 76.0186L174.739 76.0314L174.742 76.4078L173.84 76.3438L173.161 76.6791L173.148 77.1246L173.303 77.1579L173.431 77.7339L173.04 78.2434L173.197 78.6146L172.729 78.7273L171.84 81.0212L173.554 81.7125L174.359 82.5855L174.868 82.6904L175.675 83.31L176.112 84.0806L176.502 83.7734L176.513 84.6515L176.299 84.969L176.4 85.4554L177.05 85.3658L178.304 85.8011L178.746 85.4247L179.065 85.6807L180.021 85.5911L180.342 86.098L180.494 86.925L179.784 88.1308L179.247 88.5097L179.031 88.9834L179.075 89.6157L178.343 89.9895L178.433 90.435L178.176 90.7704L178.533 91.2542L179.085 91.3336L179.612 91.8328L179.91 91.9071L180.35 91.7023L180.399 92.0197L179.764 92.1964L179.484 91.8994L179.019 91.9711L179.317 92.5343L178.589 92.862L178.453 93.1206L177.865 93.2153L177.733 93.6301L177.07 94.3367L176.739 93.4995L176.24 93.584L176.04 93.3203L175.554 93.3894L175.184 92.6495L174.714 93.0208L174.739 93.4611L174.457 93.5994L174.5 94.1549L174.012 94.3982L173.21 94.137L172.488 94.3597L172.367 93.776L171.689 93.7811L171.609 93.5866L171.036 93.369L170.519 93.5354L170.365 93.8119L170.643 94.5543L169.92 94.8078L169.735 94.6823L169.072 95.0945L168.671 95.0331L168.306 95.2635L168.455 95.4913L168.831 95.5246L169.106 95.9445L168.936 96.2952L168.756 96.1954L168.496 96.3669L168.116 97.2041L168.435 97.3654L167.602 98.0362L168.299 98.2794L167.581 98.2896L167.548 98.6609L167.795 98.9834L167.301 98.8708L167.471 98.6404L167.114 98.6609L167.021 98.0771L166.517 98.4432L166.371 97.752L166.009 97.4576L165.862 96.5205L165.618 96.518L165.441 96.2364L165.263 96.5794L165.381 97.0607L164.572 96.9891L163.978 97.9338L162.59 97.5728L162.93 96.5333L163.657 95.901L163.513 95.4657L163.809 94.8206L163.305 94.5569L163.048 95.8805L162.806 95.9957L162.482 95.6629L162.308 95.819L161.683 95.3377L161.462 95.5016L161.665 95.7909L161.393 96.4002L160.966 96.4284L160.992 95.8805L160.516 95.2225L159.743 95.4862L159.714 95.2405L159.953 95.2481L160.187 94.987L160.138 94.7668L159.398 94.9051L159.262 95.3275L159.737 95.8421L159.262 96.6306L158.9 96.1391L158.275 96.1007L158.512 96.5641L159.051 96.815L158.553 96.9814L158.555 97.2784L157.681 97.0019L157.645 97.3884L158.09 98.1104L157.861 98.2307L157.165 98.2333L157.463 97.304L157.036 97.6624L156.638 97.624L156.594 97.8109L155.738 97.3833L155.949 97.0966L155.44 96.5794L155.764 96.1237L155.551 95.9496L155.319 96.0571L155.404 96.2108L155.068 96.6742L154.518 96.308L154.029 96.7535L153.184 96.9583L152.094 96.8354L151.696 97.0735L151.161 96.5026L150.351 96.2031L150.359 95.8293L149.429 96.1775L149.195 96.6178L149.413 97.327L148.586 97.2604L148.478 97.8518L148.105 97.9466L148.159 98.3895L147.761 98.9911L147.473 98.8452L147.406 99.1396L147.18 99.0602L146.931 99.4571L146.617 99.1729L146.08 99.3035L145.489 99.6107L144.918 99.2548L145.319 98.7018L145.167 98.4484L145.262 98.1795L145.481 98.5482L145.8 98.1667L145.807 97.304L146.111 96.9583L146.432 96.9046L145.748 96.7228L145.368 96.0443L145.54 95.6398L145.134 95.5707L145.072 95.1355L146.121 95.156L146.316 95.0868L146.496 94.6209L146.905 94.7335L146.997 94.5978L146.532 93.986L146.578 93.264L146.869 93.1897L146.478 92.5983L146.532 92.2988L146.345 92.3654L146.175 92.1529L147.105 90.947L147.131 90.5988L146.91 90.33L147.347 89.3751L147.28 88.5993L147.876 88.1129L147.367 87.0914L146.64 87.2681L146.684 87.67L146.398 87.7596L146.239 88.3152L145.561 88.1718L145.874 87.7033L145.183 88.5405L145.029 88.2128L144.718 88.1692L144.191 88.7094L143.656 88.5763L143.384 88.7376L143.278 88.5046L142.823 88.479L142.739 87.5625L142.528 87.3807L142.898 87.0171L142.461 86.8047L142.626 86.4667L141.844 86.5538L141.613 86.8123L140.873 86.7176L140.513 86.4385L139.192 87.1887L139.061 87.4037L139.164 87.99L138.865 88.3024L138.552 88.1974L138.495 87.926L138.295 87.99L137.668 87.5906L136.951 87.5599L136.74 87.2732L136.054 87.5317L136.349 87.8851L136.36 88.2614L136.282 88.5174L135.897 88.6813L134.972 88.7837L134.699 88.6966L134.686 88.4201L133.951 88.2409L134.064 88.3997L133.121 88.6403L132.468 88.4816L132.52 88.2307L132.258 87.9209L132.504 87.6393L132.502 87.1605L131.605 85.6219L131.145 85.7115L130.991 85.3838L130.708 85.3428L130.531 85.7063L128.287 85.6833L128.089 87.3935L127.783 88.3868L127.326 89.1779L126.94 89.1831L126.04 87.8927L125.568 87.7212L125.419 87.0709L125.041 87.2783L124.879 86.7048L124.727 86.8251L124.904 87.076L124.822 87.4114L124.565 87.0095L124.627 86.3489L123.879 85.8497L123.635 85.458L123.27 85.3735L122.154 85.906L122.214 85.6705L121.964 86.0264L122.167 86.4974L121.574 86.669L121.335 87.0581L121.201 86.7791L120.913 86.7663L119.895 87.3321L119.777 88.1206L119.245 88.328L118.728 87.4524L117.903 87.5599L117.263 87.1887L117.472 86.6869L117.084 86.3873L116.392 87.1605L116.205 87.1912L116.14 86.9839L115.457 87.4037L115.081 87.3884L114.932 86.797L114.501 86.5102L114.683 85.8651L113.897 85.1713L113.884 82.9772L113.043 82.588L112.635 82.1835L112.295 82.3371L110.761 82.2603L111.134 80.9034L110.609 80.7012L110.018 80.9777L109.915 79.9383L109.329 79.6592L109.214 79.334L108.831 79.375L108.697 79.16L108.307 79.4211L107.333 78.8246L106.903 77.949L106.392 77.8082L106.608 76.6484L106.042 76.4385L106.004 76.0442L105.862 75.9648L105.744 76.1338L105.557 75.8548L105.634 75.3811L105.819 75.2659L105.536 74.7462L104.575 74.9357L104.405 74.4953L104.053 74.7795L103.824 74.4671L103.431 75.0355L103.233 74.5158L102.483 74.7795L102.061 74.6054L101.642 74.7974L101.778 75.0048L102.133 74.9485L102.043 75.3171L100.92 75.3248L100.655 75.6295L100.013 75.7703L99.8817 75.0637L99.1415 74.5183L98.7329 73.9244L98.427 74.1343L98.2137 74.0319L97.7125 74.759L97.4761 74.4953L97.5018 74.183L97.106 74.1446L96.813 74.3519L96.7513 74.7206L97.0109 75.12L97.2807 75.1277L97.309 75.5783L97.1317 75.7319L96.813 75.44L96.5534 75.7524L96.0831 75.5271L95.7078 75.6602L95.7027 76.0468L95.2786 76.0775L94.9959 75.9725L94.7671 75.4093L94.4767 75.5194L93.9293 75.0483L93.5952 75.3991L92.9166 75.2659L92.8293 75.3991L93.261 75.8266L92.4078 76.6254L91.2718 75.8983L90.8991 76.2439L90.2283 75.7524L89.8453 75.9034L89.686 75.5219L89.2491 75.2659L88.1696 74.9792L87.9177 75.3914L88.1208 75.5501L88.2904 75.4503L88.2544 75.8112L87.9743 75.9828L87.5939 75.6858L87.0233 76.6612L86.5504 76.3822L86.6404 76.0545L86.3037 75.1994L85.9465 74.8845L85.5044 74.7974L85.6175 74.2418L86.1444 73.3586L86.2369 72.4907L86.6301 72.4216L86.5813 72.2398L86.7535 72.1655L86.0081 71.121L86.643 70.6986L87.3626 70.5705L87.5451 70.4246L87.3677 70.2761L87.8509 70.2096L87.7995 69.9023L88.4164 69.7411L89.0872 69.9868L89.2079 70.2864L89.4984 70.0457L90.4056 70.4169L90.7063 70.1635L90.7449 69.7999L91.426 69.4082L91.922 69.9535L92.7265 69.6156L93.4358 69.8281L94.0475 69.3673L94.451 69.4927L94.5307 69.1138L94.834 69.229L95.0036 68.996L94.6952 68.8296L94.487 68.1384L94.8211 67.908L95.019 68.0769L95.4945 67.57L95.5202 66.6227L95.7875 66.3104L96.4043 66.1261L96.8027 65.6627L97.4452 65.4374L97.3861 64.5618L96.6408 64.0933L95.3017 64.0574L94.2711 63.484L94.1683 63.804L93.9036 63.6427L93.6491 64.0702L93.5746 63.6401L93.2996 63.74L93.3716 63.932L93.1608 64.1573L92.7624 64.1343L92.7239 63.9243L92.3281 64.1522L91.976 63.8066L90.2463 63.4072L90.0535 63.1947L90.5701 62.9361L90.6729 62.4855L91.1664 62.4753L91.719 61.8659L92.1533 61.8557L92.0479 61.2464L92.2484 61.0774L91.9143 60.0994L92.2279 60.1378L91.958 59.7538L92.4001 59.1086L92.1996 58.7553L91.9477 58.7041L91.6496 57.8849L91.9734 57.2653L92.7008 56.9299L93.2662 56.0031L93.4435 56.0774L93.8779 55.7189L93.8599 54.7614L93.6903 54.5054L94.0218 53.9473L93.8933 53.0461L93.626 53.0077L93.6209 52.1859L94.0269 51.5433L93.937 51.3897L95.2837 51.5023L95.7875 52.1398L96.5328 52.2934L96.8592 51.6303L98.206 51.0697L98.3113 50.3707L98.7431 49.8382L99.198 48.5376L99.653 48.5863L100.144 47.7542L100.917 47.214L101.264 47.3958L101.547 47.1782L102.48 47.2857L102.642 46.7071L103.025 46.51L103.357 46.6124L103.562 46.4255L103.904 46.935L104.523 47.1065L105.279 47.9923L105.366 48.3379L105.988 48.6477L107.245 48.1818L107.582 47.68L108.836 48.3559L111.021 48.6836L112.334 48.576L112.789 46.5535L112.498 45.0737L113.043 44.3671V43.8423L114.639 42.3804L115.277 42.319L115.806 42.0425L116.089 41.4587L115.835 41.1387L116.048 41.1208L116.428 40.6523L116.002 40.217L116.857 39.9918L117.207 39.6461L117.754 39.8689L118.353 38.9651L118.669 37.9026L118.998 37.726L119.137 37.3676L119.515 37.1781L120.404 37.4495L120.456 37.1397L120.908 36.7506L121.35 36.8607L121.414 36.3921L122.17 35.5754L122.352 35.5908Z" fill="#5D6A81" stroke="#282A2D" stroke-width="0.5"/>
<path d="M111.982 113.948L111.792 113.897L111.522 113.269L111.702 113.008L111.9 113.072L111.982 113.948ZM117.842 111.605L117.657 111.587L117.644 111.139L117.968 111.329L117.842 111.605ZM120.486 110.865L120.9 111.377L120.546 111.644L119.893 110.878L120.486 110.865ZM111.838 108.364L112.47 108.707L112.871 108.528L112.781 108.861L113.144 109.086L113.578 109.004L113.863 108.707L114.46 108.802L114.596 108.587L114.84 108.653L114.645 109.588L113.583 110.123L113.935 111.316L113.678 112.005L114.511 112.611L114.634 111.749L115.77 111.802L116.148 112.207L115.58 112.64L115.554 113.072L115.04 113.18L114.352 112.693L114.095 113.044L114.177 113.436L113.555 113.733L113.419 113.584L113.581 113.315L113.27 113.1L113.581 112.885L113.419 112.547L113.013 112.844L112.47 112.911L109.859 112.655L109.63 112.816L109.509 112.547L108.941 112.358L108.726 111.697L108.278 111.859L108.291 112.048L107.79 111.738L108.278 111.28H108.535V110.013L108.9 109.27L109.455 108.717L110.065 108.502L111.838 108.364Z" fill="#5D6A81" stroke="#282A2D" stroke-width="0.5"/>
<path d="M87.0232 76.6612L87.5938 75.6857L87.9741 75.9827L88.2543 75.8112L88.2903 75.4502L88.1206 75.5526L87.9176 75.3913L88.172 74.9817L89.2489 75.2684L89.6884 75.5244L89.8478 75.9059L90.2281 75.7549L90.8989 76.249L91.2716 75.9033L92.4076 76.6304L93.2635 75.8317L92.8317 75.4041L92.9191 75.2684L93.5976 75.4041L93.9291 75.0534L94.4766 75.5244L94.767 75.4169L94.9957 75.9776L95.2785 76.0826L95.7025 76.0544L95.7077 75.6678L96.0829 75.5372L96.5507 75.76L96.8102 75.4476L97.1289 75.7395L97.3063 75.5859L97.278 75.1353L97.0082 75.1302L96.7511 74.7282L96.8128 74.3596L97.1058 74.1522L97.5016 74.1906L97.4759 74.5029L97.7124 74.7666L98.2135 74.0395L98.4269 74.1419L98.7327 73.932L99.1439 74.5285L99.8841 75.0738L100.015 75.7805L100.658 75.6396L100.922 75.335L102.046 75.3273L102.136 74.9586L101.783 75.015L101.647 74.8076L102.066 74.613L102.485 74.7871L103.236 74.5234L103.433 75.0431L103.829 74.4748L104.058 74.7871L104.41 74.5055L104.582 74.9458L105.544 74.7564L105.824 75.2761L105.639 75.3913L105.562 75.8649L105.749 76.144L105.87 75.9776L106.011 76.057L106.05 76.4512L106.615 76.6612L106.399 77.8209L106.911 77.9617L107.34 78.8373L108.314 79.4338L108.707 79.1753L108.841 79.3878L109.224 79.3494L109.34 79.6745L109.926 79.9536L110.026 80.9955L110.617 80.7165L111.144 80.9187L110.771 82.2756L112.306 82.3499L112.645 82.1963L113.053 82.6008L113.896 82.9899L113.907 85.184L114.693 85.8778L114.513 86.523L114.945 86.8097L115.094 87.3986L115.469 87.4139L116.156 86.9941L116.22 87.2014L116.405 87.1681L117.096 86.395L117.484 86.6945L117.276 87.1963L117.919 87.5675L118.744 87.46L119.258 88.3356L119.792 88.1282L119.911 87.3397L120.928 86.7739L121.216 86.7867L121.35 87.0683L121.589 86.6766L122.18 86.5076L121.977 86.034L122.229 85.6781L122.167 85.9137L123.283 85.3811L123.65 85.4656L123.894 85.8573L124.645 86.3566L124.583 87.0171L124.84 87.419L124.922 87.0837L124.745 86.8328L124.897 86.7124L125.059 87.2859L125.439 87.0811L125.588 87.7288L126.061 87.9004L126.963 89.1932L127.346 89.1881L127.803 88.397L128.112 87.4037L128.31 85.6935L130.556 85.7165L130.733 85.3555L131.016 85.3939L131.17 85.7242L131.63 85.632L132.527 87.1707L132.53 87.6495L132.286 87.9336L132.548 88.2434L132.497 88.4943L133.149 88.653L134.093 88.4124L133.979 88.2537L134.715 88.4329L134.727 88.7094L135 88.7964L135.925 88.6915L136.311 88.5276L136.388 88.2716L136.377 87.8978L136.084 87.5419L136.771 87.2859L136.984 87.5727L137.698 87.6034L138.326 88.0028L138.526 87.9388L138.58 88.2127L138.896 88.3177L139.194 88.0053L139.089 87.419L139.223 87.204L140.544 86.4539L140.903 86.7304L141.644 86.8251L141.875 86.5691L142.656 86.482L142.492 86.82L142.929 87.0325L142.559 87.3986L142.772 87.5803L142.857 88.4943L143.312 88.5199L143.417 88.7555L143.689 88.5942L144.224 88.7273L144.751 88.1871L145.059 88.2306L145.216 88.5583L145.907 87.7211L145.591 88.1897L146.27 88.333L146.429 87.7775L146.714 87.6904L146.673 87.2859L147.401 87.1093L147.91 88.1308L147.313 88.6146L147.38 89.3929L146.943 90.3453L147.164 90.6141L147.139 90.9623L146.206 92.1707L146.378 92.3807L146.563 92.3167L146.509 92.6162L146.9 93.2076L146.609 93.2819L146.563 94.0038L147.028 94.6157L146.938 94.7514L146.529 94.6388L146.352 95.1047L146.157 95.1738L145.108 95.1533L145.17 95.586L145.576 95.6577L145.404 96.0622L145.784 96.7381L146.465 96.9224L146.144 96.9736L145.841 97.3193L145.833 98.182L145.514 98.5635L145.296 98.1948L145.201 98.4637L145.352 98.7197L144.951 99.2727L145.522 99.6285L146.113 99.3213L146.226 99.7668H146.838L146.856 100.092L147.095 100.064L147.028 100.279L147.362 100.386L147.082 100.558L147.259 100.642L147.157 101.101L146.694 101.5L146.964 101.784L146.535 105.484L146.756 105.801L146.08 105.791L145.085 106.334L144.823 106.777L145.445 107.386L145.55 107.867L145.19 108.277L145.694 108.681L145.648 109.559L146.123 109.849L145.627 110.881L146.149 111.096L145.967 111.38L145.537 111.439L145.522 111.61L145.877 111.869L146.542 111.482L145.851 112.365L145.309 112.598L145.542 112.762L146.452 112.522L146.632 113.164L147.223 113.049L147.375 113.359L147.928 113.464L147.853 113.955L147.547 114.127L145.956 114.007L145.794 114.552L146.563 114.798L146.193 115.084L145.941 115.041L146.018 115.95L145.558 116.07L145.075 115.333L144.681 115.335L144.507 115.791L144.556 116.508L144.291 116.948L143.432 117.197L143.247 117.632L142.515 117.796L142.325 118.19L141.944 118.285L141.484 117.511L141.024 117.68L140.991 117.263L140.533 117.214L140.415 117.849L140.556 118.584L140.333 118.927L139.904 118.712L139.752 119.071L139.973 119.242L139.924 119.897L140.253 120.169L140.024 120.576L138.621 120.435L138.516 120.174L137.614 120.607L137.637 120.847L138.061 121.001L137.67 121.091L137.984 122.529L137.799 122.473L137.788 122.217L136.884 122.063L136.855 121.587L136.177 120.696L135.416 120.619L135.11 119.859L134.332 120.138L134.406 120.691L133.134 120.64L131.425 119.59L131.242 120.381L131.435 120.686L130.772 120.658L130.703 121.362L129.659 121.311L128.96 121.956L130.042 122.23L129.896 121.769L130.114 122.089L130.438 122.005L130.402 122.35L129.615 122.417L129.417 122.752L129.124 122.102L128.924 122.022L128.927 122.511L128.698 122.693L128.549 122.47L127.839 123.382L127.523 123.326L127.282 123.786L126.706 123.443L126.377 123.51L126.274 123.83L126.007 123.827L126.703 124.053L127.315 124.613L127.307 126.277L126.891 126.516L126.873 126.777L126.49 126.705L126.308 127.43L126.372 127.78L127.217 128.108L127.811 128.815L127.829 130.102L127.482 130.269L125.84 130.32L125.842 130.814L125.205 130.853L123.362 130.689L122.46 130.376L122.309 130.125L121.738 130.492L121.185 130.3L121.368 131.155L121.802 131.454L121.697 131.933L122.704 132.522L123.033 132.448L123.157 133.067L123.82 132.788L123.948 133.144L124.192 133.19L124.282 132.821L124.637 132.785L125.015 133.282L125.49 132.512L126.164 132.773L126.241 133.018L125.999 133.682L125.555 133.943L126.223 133.758L126.097 133.973L126.223 134.339L126.852 134.145L126.734 133.679L127.297 133.94L127.066 133.976L127.081 134.181L127.418 134.25L128.952 133.833L129.33 134.357L129.006 134.895L129.302 134.754L129.523 135.346L129.811 135.484L129.51 135.806L129.811 136.79L129.541 137.345L129.734 137.535L129.767 138.341L130.34 138.996L129.952 139.757L129.51 139.718L128.96 139.322L128.513 139.818L128.248 139.634L128.073 139.785L127.809 140.44L128.328 141.549L128.5 141.592L128.721 142.376L128.377 142.824L128.446 143.052L127.557 143.29L127.526 143.648L127.755 143.743L128.163 144.644L127.665 145.842L126.696 146.498L126.608 146.974L126.59 147.509L127.523 147.765L128.23 148.254L128.636 148.789L128.536 148.874L127.947 149.951L127.919 153.136L126.189 154.854L123.498 155.282L123.385 154.703L122.201 154.926L121.972 153.784L119.533 154.099L119.065 154.352L119.286 155.535L118.849 155.786L118.829 156.631H118.304L117.77 156.943L116.04 156.472L114.511 156.626L114.413 156.037L112.922 155.118L112.411 155.103L112.73 153.674L112.357 153.659L112.383 153.19L112.049 153.357L111.946 153.088L111.478 153.574L110.99 153.116L110.938 153.487L110.55 153.643L109.496 153.477L109.432 153.766L108.255 153.533L107.862 154.509L107.661 154.521L107.654 154.772L107.24 154.821L107.715 155.991L107.543 156.316L106.713 156.995L106.492 157.402L105.934 157.676L105.926 157.862L105.048 157.622L105.017 157.007L103.824 157.03L103.739 155.976L103.218 156.024L103.025 154.887L101.773 154.834L101.776 154.091L101.552 153.899L101.745 153.884L101.727 152.683L101.418 152.655L101.349 151.792L101.005 151.813L100.781 151.5L100.755 150.876L101.29 150.871L101.233 149.672L100.969 149.573L101.087 149.135L101.868 148.894L101.65 147.972L101.143 147.737L101.313 146.92L100.881 145.796L99.8636 147.189L98.6993 146.472L98.4783 146.503L98.1184 145.973L97.5145 146.221L96.8205 146.15L96.124 145.246L95.9133 143.587L95.6408 143.484L95.61 143.666L95.1242 143.648L95.2296 143.94L94.7079 143.802L94.2607 143.103L94.127 143.262L93.5282 143.162L93.6259 143.075L92.7931 142.271L92.2123 143.84L91.6289 144.148L91.3924 143.262L90.151 145.056L90.1228 144.711L89.0767 144.112L88.9199 143.582L89.0125 143.172L90.4029 141.782L90.0919 141.587L89.9274 141.091L89.452 140.584L89.0305 139.498L89.1281 139.163L89.5034 139.091L89.6833 138.776L90.4183 138.851L90.3181 137.885L90.48 137.727L90.3181 137.619L90.6265 137.171L91.5595 137.458L91.688 137.33L91.3796 136.229L90.845 136.19L90.6214 135.205L89.4443 135.223L88.8737 134.836L88.8377 134.281L88.501 133.991L88.0795 134.071L88.0744 133.661L87.8225 133.308L87.0926 133.041L86.887 132.33L87.6092 132.14L87.491 131.769L87.73 131.457L88.2183 131.342L88.2517 130.758L89.0433 130.73L89.3235 128.871L88.9611 128.812L88.5576 127.445L88.7606 127.281L89.1024 127.378L89.619 126.764L89.8401 126.943L90.4826 126.577L91.5029 126.71L91.688 126.459L92.7623 126.247L92.3099 125.192L92.2354 123.021L91.9578 123.105L91.8293 122.729L91.6314 122.732L91.4695 123.077L91.0609 122.783L91.9424 122.102L91.9681 121.242L90.827 120.681L90.9555 120.525L90.2281 119.867L90.0148 119.147L89.2361 118.464L89.2695 118.082L88.9354 117.785L88.465 117.788L88.6706 116.907L87.5424 116.582L87.4781 116.147L86.6274 114.705L86.869 114.467L86.5349 113.976L86.923 113.656L86.6094 113.282L86.2367 113.51L85.9206 113.198L86.1236 113.128L85.9566 112.737L86.5143 112.668L86.0208 111.526L86.7328 111.477L86.9795 111.103L87.2442 111.428L87.8225 110.827L88.8891 110.45L88.3854 109.539L88.8326 109.616L89.3543 109.424L89.9043 108.725L89.1872 107.074L88.298 107.78L87.4473 107.975L87.8559 106.876L87.7146 105.371L86.7508 105.648L86.3395 106.049L86.1468 105.965L85.4683 106.454L84.8257 106.216L84.7589 105.712L84.376 105.292L84.4608 104.846L84.1652 104.265L84.3143 104.088L83.9982 103.771L84.1112 102.916L84.4736 102.742L84.4685 102.432L84.0881 102.427L83.6281 102.726L83.2811 102.588L83.0189 102.836L83.5355 103.308L83.4199 103.633L81.7955 102.734L81.6953 102.381L82.3944 101.454L82.4895 100.852L82.7002 100.642L82.8699 100.729L82.7645 101.055L83.0369 101.318L83.6126 101.28L83.9159 100.791L84.6047 100.422L85.4888 99.6081L85.8204 99.8641L86.1545 99.562L86.5426 99.9102L86.6145 100.258L86.8124 100.1L87.5912 100.486L87.915 100.31L88.3005 100.43L88.7195 99.8974L88.6192 99.7105L88.9816 99.6516L88.8737 99.3546L89.2952 98.671L89.4674 98.7043L89.8169 97.8646L90.0971 97.8441L90.1947 97.6009L90.4235 97.7468L90.6239 97.5113L91.048 97.4473L90.9761 96.8456L91.67 95.2634L91.9707 95.266L91.8448 94.6797L92.1455 94.6567L92.3922 94.0806L93.0604 94.1088L93.9754 92.926L93.4819 92.6495L93.8083 92.4933L93.7055 92.3218L94.1142 91.4155L93.8623 91.0929L93.9214 90.4554L93.5847 90.5066L93.6901 90.1559L93.3817 90.0227L93.4048 89.567L93.6079 89.3392L93.338 89.0371L94.2812 89.4211L94.2632 88.3612L94.8698 88.374L94.9495 88.0463L94.3198 87.8056L94.3018 86.7201L94.5717 86.2439L93.8674 86.418L93.7749 86.2055L93.4357 86.1313L93.0836 86.4564L92.9525 86.1236L92.6158 85.9341L92.5053 85.1354L91.9913 84.1702L92.2226 83.2536L92.0966 82.7441L91.2459 82.3908L90.1459 80.5526L89.7501 80.207L89.1178 80.2813L88.7889 80.5347L88.483 80.4041L88.1181 80.6346L88.2414 80.3273L87.9921 79.3775L88.2697 79.1522L88.2826 78.6146L88.6115 78.4123L86.9898 76.9249L87.0232 76.6612ZM111.838 108.364L112.47 108.707L112.871 108.528L112.781 108.861L113.143 109.086L113.578 109.004L113.863 108.707L114.459 108.802L114.596 108.587L114.84 108.653L114.644 109.588L113.583 110.123L113.935 111.316L113.678 112.004L114.511 112.611L114.634 111.748L115.77 111.802L116.148 112.207L115.58 112.639L115.554 113.072L115.04 113.18L114.351 112.693L114.094 113.044L114.177 113.436L113.555 113.733L113.418 113.584L113.58 113.315L113.269 113.1L113.58 112.885L113.418 112.547L113.012 112.844L112.47 112.911L109.859 112.655L109.63 112.816L109.509 112.547L108.941 112.358L108.725 111.697L108.278 111.859L108.291 112.048L107.79 111.738L108.278 111.28H108.535V110.013L108.9 109.27L109.455 108.717L110.064 108.502L111.838 108.364ZM120.486 110.865L120.9 111.377L120.545 111.643L119.923 110.793L120.486 110.865ZM117.842 111.605L117.657 111.587L117.644 111.139L117.968 111.329L117.842 111.605ZM111.887 114.007L111.522 113.269L111.702 113.008L111.899 113.072L112.036 113.791L111.887 114.007Z" fill="#5D6A81" stroke="#282A2D" stroke-width="0.5"/>
<path d="M93.108 211.463L92.982 212.435H86.844V223.883H85.674V211.463C86.298 211.427 86.922 211.403 87.546 211.391C88.182 211.379 88.806 211.373 89.418 211.373C90.042 211.373 90.66 211.379 91.272 211.391C91.884 211.403 92.496 211.427 93.108 211.463ZM89.778 216.953C90.786 216.953 91.578 217.067 92.154 217.295C92.73 217.523 93.138 217.901 93.378 218.429C93.618 218.945 93.738 219.641 93.738 220.517C93.738 221.273 93.654 221.885 93.486 222.353C93.33 222.821 93.084 223.175 92.748 223.415C92.412 223.655 91.98 223.817 91.452 223.901C90.936 223.997 90.324 224.045 89.616 224.045C89.1 224.045 88.632 224.039 88.212 224.027C87.792 224.015 87.378 223.997 86.97 223.973C86.574 223.949 86.148 223.919 85.692 223.883L85.944 222.947C86.208 222.959 86.676 222.971 87.348 222.983C88.02 222.995 88.83 223.001 89.778 223.001C90.486 223.001 91.038 222.935 91.434 222.803C91.842 222.671 92.13 222.425 92.298 222.065C92.466 221.693 92.55 221.165 92.55 220.481C92.55 219.833 92.472 219.323 92.316 218.951C92.172 218.579 91.896 218.315 91.488 218.159C91.092 217.991 90.522 217.907 89.778 217.907H85.926V216.953H89.778ZM99.7442 214.937C100.992 214.937 101.904 215.165 102.48 215.621C103.068 216.077 103.368 216.755 103.38 217.655C103.392 218.435 103.242 219.035 102.93 219.455C102.618 219.875 102.102 220.085 101.382 220.085H96.2882V219.185H101.13C101.562 219.185 101.856 219.041 102.012 218.753C102.168 218.465 102.24 218.105 102.228 217.673C102.216 217.049 102.018 216.605 101.634 216.341C101.25 216.065 100.638 215.927 99.7982 215.927C99.1022 215.927 98.5502 216.035 98.1422 216.251C97.7342 216.467 97.4402 216.833 97.2602 217.349C97.0922 217.853 97.0082 218.543 97.0082 219.419C97.0082 220.391 97.1102 221.147 97.3142 221.687C97.5182 222.215 97.8422 222.587 98.2862 222.803C98.7302 223.007 99.3122 223.109 100.032 223.109C100.56 223.109 101.094 223.091 101.634 223.055C102.174 223.007 102.648 222.953 103.056 222.893L103.164 223.667C102.936 223.763 102.624 223.841 102.228 223.901C101.832 223.961 101.424 224.009 101.004 224.045C100.596 224.081 100.224 224.099 99.8882 224.099C98.9282 224.099 98.1482 223.949 97.5482 223.649C96.9482 223.337 96.5102 222.845 96.2342 222.173C95.9702 221.489 95.8382 220.595 95.8382 219.491C95.8382 218.351 95.9702 217.451 96.2342 216.791C96.4982 216.131 96.9182 215.657 97.4942 215.369C98.0702 215.081 98.8202 214.937 99.7442 214.937ZM112.563 215.153V216.071H109.449C109.053 216.071 108.765 216.161 108.585 216.341C108.417 216.521 108.303 216.815 108.243 217.223C108.183 217.775 108.111 218.345 108.027 218.933C107.955 219.521 107.865 220.091 107.757 220.643C107.649 221.183 107.499 221.675 107.307 222.119C107.175 222.479 106.995 222.791 106.767 223.055C106.539 223.319 106.269 223.529 105.957 223.685C105.645 223.841 105.285 223.937 104.877 223.973L104.733 223.091C105.045 222.983 105.297 222.869 105.489 222.749C105.693 222.617 105.855 222.467 105.975 222.299C106.107 222.131 106.215 221.951 106.299 221.759C106.443 221.435 106.557 221.069 106.641 220.661C106.737 220.241 106.815 219.815 106.875 219.383C106.947 218.939 107.001 218.519 107.037 218.123C107.085 217.715 107.127 217.361 107.163 217.061C107.247 216.437 107.451 215.963 107.775 215.639C108.099 215.315 108.597 215.153 109.269 215.153H112.563ZM112.797 215.153V223.883H111.645V215.153H112.797ZM119.92 214.937C120.52 214.937 121.024 215.027 121.432 215.207C121.852 215.375 122.17 215.657 122.386 216.053C122.602 216.437 122.71 216.959 122.71 217.619V223.883H121.81L121.63 221.975L121.558 221.813V217.619C121.558 217.067 121.432 216.647 121.18 216.359C120.928 216.071 120.436 215.927 119.704 215.927C119.176 215.927 118.564 215.951 117.868 215.999C117.172 216.047 116.494 216.107 115.834 216.179L115.726 215.333C116.122 215.261 116.548 215.201 117.004 215.153C117.472 215.093 117.952 215.045 118.444 215.009C118.936 214.961 119.428 214.937 119.92 214.937ZM122.116 218.555L122.098 219.419L117.832 219.455C117.376 219.467 117.04 219.593 116.824 219.833C116.62 220.061 116.518 220.385 116.518 220.805V221.561C116.518 222.053 116.644 222.419 116.896 222.659C117.148 222.899 117.526 223.019 118.03 223.019C118.414 223.031 118.84 222.965 119.308 222.821C119.776 222.677 120.232 222.467 120.676 222.191C121.132 221.915 121.534 221.591 121.882 221.219V222.101C121.75 222.281 121.546 222.479 121.27 222.695C121.006 222.911 120.694 223.121 120.334 223.325C119.986 223.529 119.596 223.697 119.164 223.829C118.744 223.961 118.306 224.027 117.85 224.027C117.346 224.027 116.902 223.937 116.518 223.757C116.146 223.577 115.858 223.313 115.654 222.965C115.462 222.605 115.366 222.173 115.366 221.669V220.661C115.366 219.989 115.564 219.473 115.96 219.113C116.368 218.741 116.938 218.555 117.67 218.555H122.116ZM130.34 214.937C131.444 214.937 132.23 215.315 132.698 216.071C133.166 216.827 133.4 217.985 133.4 219.545C133.4 220.661 133.286 221.555 133.058 222.227C132.83 222.887 132.476 223.367 131.996 223.667C131.516 223.955 130.904 224.099 130.16 224.099C129.572 224.099 128.99 224.021 128.414 223.865C127.85 223.697 127.286 223.457 126.722 223.145L126.776 222.425C127.412 222.629 127.964 222.791 128.432 222.911C128.9 223.031 129.392 223.091 129.908 223.091C130.46 223.091 130.904 222.989 131.24 222.785C131.576 222.569 131.822 222.203 131.978 221.687C132.146 221.171 132.23 220.457 132.23 219.545C132.23 218.657 132.152 217.955 131.996 217.439C131.852 216.911 131.618 216.533 131.294 216.305C130.982 216.065 130.562 215.945 130.034 215.945C129.518 215.945 129.008 216.071 128.504 216.323C128.012 216.575 127.436 216.965 126.776 217.493L126.686 216.665C127.046 216.305 127.424 215.999 127.82 215.747C128.228 215.483 128.642 215.285 129.062 215.153C129.494 215.009 129.92 214.937 130.34 214.937ZM126.614 215.153L126.758 216.899L126.83 217.061V222.821L126.758 223.037C126.794 223.373 126.818 223.685 126.83 223.973C126.842 224.261 126.842 224.573 126.83 224.909V227.555H125.696V215.153H126.614ZM143.414 215.153L139.742 224.495C139.646 224.747 139.52 225.023 139.364 225.323C139.22 225.635 139.046 225.935 138.842 226.223C138.65 226.523 138.416 226.775 138.14 226.979C137.732 227.279 137.282 227.465 136.79 227.537C136.298 227.609 135.77 227.609 135.206 227.537L135.314 226.763C135.686 226.775 136.052 226.751 136.412 226.691C136.784 226.643 137.126 226.511 137.438 226.295C137.702 226.091 137.936 225.815 138.14 225.467C138.356 225.119 138.536 224.753 138.68 224.369L139.094 223.397C139.178 223.169 139.262 222.929 139.346 222.677C139.442 222.413 139.532 222.173 139.616 221.957L142.19 215.153H143.414ZM136.07 215.153L138.662 221.975C138.722 222.143 138.782 222.311 138.842 222.479C138.902 222.647 138.956 222.815 139.004 222.983H139.4L138.986 223.883H138.608C138.5 223.883 138.404 223.859 138.32 223.811C138.248 223.751 138.194 223.673 138.158 223.577L134.864 215.153H136.07ZM148.914 214.937C149.166 214.937 149.448 214.949 149.76 214.973C150.072 214.997 150.39 215.039 150.714 215.099C151.038 215.147 151.338 215.219 151.614 215.315L151.434 216.071C151.074 216.023 150.672 215.987 150.228 215.963C149.784 215.939 149.412 215.927 149.112 215.927C148.356 215.927 147.75 216.035 147.294 216.251C146.85 216.455 146.526 216.821 146.322 217.349C146.13 217.865 146.034 218.585 146.034 219.509C146.034 220.433 146.13 221.159 146.322 221.687C146.526 222.215 146.85 222.587 147.294 222.803C147.75 223.007 148.356 223.109 149.112 223.109C149.28 223.109 149.508 223.103 149.796 223.091C150.096 223.079 150.408 223.061 150.732 223.037C151.068 223.013 151.38 222.977 151.668 222.929L151.776 223.703C151.356 223.835 150.894 223.931 150.39 223.991C149.898 224.063 149.412 224.099 148.932 224.099C147.936 224.099 147.138 223.949 146.538 223.649C145.938 223.349 145.506 222.869 145.242 222.209C144.978 221.537 144.846 220.637 144.846 219.509C144.846 218.393 144.978 217.499 145.242 216.827C145.506 216.155 145.938 215.675 146.538 215.387C147.138 215.087 147.93 214.937 148.914 214.937ZM157.506 218.717C158.37 218.717 159.048 218.801 159.54 218.969C160.032 219.125 160.38 219.401 160.584 219.797C160.788 220.181 160.89 220.697 160.89 221.345C160.89 222.041 160.782 222.581 160.566 222.965C160.35 223.349 160.002 223.619 159.522 223.775C159.054 223.919 158.436 223.991 157.668 223.991C157.116 223.991 156.636 223.985 156.228 223.973C155.832 223.973 155.466 223.961 155.13 223.937C154.806 223.925 154.452 223.907 154.068 223.883L154.284 223.019C154.488 223.031 154.878 223.043 155.454 223.055C156.03 223.067 156.714 223.073 157.506 223.073C158.046 223.073 158.478 223.025 158.802 222.929C159.126 222.833 159.354 222.659 159.486 222.407C159.63 222.155 159.702 221.789 159.702 221.309C159.702 220.877 159.636 220.535 159.504 220.283C159.384 220.031 159.162 219.851 158.838 219.743C158.526 219.635 158.082 219.581 157.506 219.581H154.266V218.717H157.506ZM155.148 215.153V223.883H154.032V215.153H155.148Z" fill="#C8A35F"/>
<defs>
<linearGradient id="paint0_linear_1364_105" x1="123" y1="0" x2="123" y2="246" gradientUnits="userSpaceOnUse">
<stop stop-color="#C8A35F" stop-opacity="0.4"/>
<stop offset="1" stop-color="#C8A35F" stop-opacity="0"/>
</linearGradient>
</defs>
</svg>
